<?xml version="1.0" standalone="no"?>
<!DOCTYPE svg PUBLIC "-//W3C//DTD SVG 20010904//EN"
 "http://www.w3.org/TR/2001/REC-SVG-20010904/DTD/svg10.dtd">
<svg version="1.0" xmlns="http://www.w3.org/2000/svg"
 width="500.000000pt" height="500.000000pt" viewBox="0 0 500.000000 500.000000"
 preserveAspectRatio="xMidYMid meet">

<g transform="translate(0.000000,500.000000) scale(0.100000,-0.100000)"
fill="#000000" stroke="none">
<path d="M741 2808 c-121 -60 -145 -248 -43 -340 95 -86 261 -69 329 33 19 29
28 58 31 100 l4 59 -116 0 -116 0 0 -45 0 -45 58 0 57 -1 -28 -24 c-21 -18
-40 -25 -72 -25 -58 0 -95 41 -95 105 0 86 80 130 155 86 41 -24 145 -30 145
-9 0 26 -47 79 -91 103 -62 33 -154 35 -218 3z"/>
<path d="M1190 2625 l0 -205 146 0 145 0 -3 48 -3 47 -82 3 -83 3 0 29 0 30
70 0 70 0 0 45 0 45 -70 0 -70 0 0 30 0 30 80 0 80 0 0 50 0 50 -140 0 -140 0
0 -205z"/>
<path d="M1610 2626 l0 -206 60 0 60 0 0 60 c0 51 3 60 18 60 13 0 28 -19 47
-60 l29 -60 68 0 69 0 -37 66 -36 65 20 22 c47 52 57 128 22 184 -31 52 -70
65 -202 71 l-118 5 0 -207z m208 92 c7 -7 12 -24 12 -38 0 -37 -18 -50 -67
-50 l-43 0 0 50 0 50 43 0 c24 0 48 -5 55 -12z"/>
<path d="M2145 2820 c-44 -18 -70 -59 -70 -112 0 -43 4 -53 32 -78 18 -16 52
-34 75 -40 90 -23 119 -50 83 -76 -27 -20 -43 -17 -71 11 -20 20 -35 25 -76
25 l-50 0 6 -32 c27 -138 294 -141 320 -3 15 76 -31 123 -147 155 -72 19 -87
70 -21 70 23 0 38 -6 46 -20 10 -16 24 -20 66 -20 53 0 54 0 48 26 -18 70 -71
104 -163 103 -32 0 -67 -4 -78 -9z"/>
<path d="M2500 2775 l0 -55 60 0 60 0 0 -150 0 -150 60 0 60 0 0 150 0 150 60
0 60 0 0 55 0 55 -180 0 -180 0 0 -55z"/>
<path d="M2987 2823 c-4 -3 -7 -96 -7 -205 l0 -198 146 0 145 0 -3 48 -3 47
-82 3 -83 3 0 29 0 30 75 0 75 0 0 45 0 45 -75 0 -75 0 0 30 0 30 80 0 80 0 0
50 0 50 -133 0 c-74 0 -137 -3 -140 -7z"/>
<path d="M3400 2625 l0 -205 60 0 60 0 0 60 c0 53 2 60 20 60 14 0 28 -17 50
-60 l30 -60 66 0 66 0 -37 66 -36 67 27 29 c23 23 29 39 32 92 4 59 2 65 -27
99 -39 43 -92 57 -221 57 l-90 0 0 -205z m216 80 c15 -23 15 -27 0 -50 -13
-20 -25 -25 -56 -25 l-40 0 0 50 0 50 40 0 c31 0 43 -5 56 -25z"/>
<path d="M3887 2823 c-4 -3 -7 -96 -7 -205 l0 -198 60 0 60 0 0 75 0 75 28 0
c24 0 32 -9 65 -75 l37 -75 65 0 c36 0 65 2 65 4 0 3 -23 47 -51 98 -39 73
-48 97 -40 110 10 16 81 188 81 195 0 2 -28 3 -62 1 l-62 -3 -24 -60 c-26 -66
-44 -85 -79 -85 -22 0 -23 3 -23 75 l0 75 -53 0 c-30 0 -57 -3 -60 -7z"/>
</g>
</svg>
